<svg xmlns="http://www.w3.org/2000/svg" width="1024" height="1024" viewBox="0 0 1024 1024">
<g>
<path d="M 0.15 770.75 L 0.00 1024.00 L 0.00 0.00 L 1024.00 0.00 L 770.75 0.15 C636.20,0.23 534.38,0.62 534.38,1.04 C534.38,1.06 534.58,1.08 535.00,1.09 C617.98,4.84 696.40,27.42 766.91,67.88 C894.24,140.94 984.53,265.65 1013.87,409.00 C1018.22,430.25 1022.97,464.75 1022.99,475.25 C1023.00,477.86 1023.22,480.00 1023.50,480.00 C1023.78,480.00 1024.00,372.00 1024.00,240.00 L 1024.00 1024.00 L 1023.83 783.75 C1023.74,652.96 1023.52,547.47 1023.34,547.47 C1023.34,547.47 1023.34,547.48 1023.33,547.50 C1014.07,659.93 974.77,756.93 904.00,842.00 C890.65,858.06 858.06,890.65 842.05,903.96 C768.74,964.91 685.95,1002.81 593.00,1017.96 C586.12,1019.08 579.26,1020.00 577.75,1020.00 L 575.00 1020.00 L 575.00 669.00 L 712.86 669.00 L 713.92 663.75 C714.50,660.86 719.72,632.40 725.52,600.50 C737.82,532.87 740.92,516.15 741.62,513.75 C742.11,512.09 737.68,512.00 658.48,512.00 L 574.82 512.00 L 575.28 469.25 C575.70,431.24 575.97,425.45 577.78,417.00 C582.58,394.45 588.71,382.14 601.43,369.46 C609.03,361.88 612.04,359.65 620.00,355.73 C630.06,350.77 643.00,346.95 657.00,344.80 C665.26,343.54 720.78,342.94 741.00,343.90 L 749.50 344.31 L 749.76 273.27 L 750.01 202.23 L 736.26 199.62 C728.69,198.19 715.53,196.13 707.00,195.03 C615.19,183.28 537.91,193.26 486.46,223.51 C434.42,254.09 403.77,305.30 393.09,379.50 C389.79,402.45 389.01,419.13 389.00,466.75 L 389.00 512.00 L 282.99 512.00 L 283.24 590.25 L 283.50 668.50 L 389.00 669.02 L 389.00 838.45 C389.00,938.48 388.63,1008.11 388.09,1008.44 C387.60,1008.75 378.93,1006.56 368.83,1003.58 C299.83,983.23 239.48,950.79 182.50,903.41 C166.18,889.84 134.72,858.42 121.05,842.02 C47.12,753.37 6.45,649.10 1.10,534.50 C1.08,534.10 1.06,533.91 1.04,533.91 C0.62,533.91 0.23,635.65 0.15,770.75 ZM 0.15 253.25 C0.23,388.35 0.62,490.09 1.04,490.09 C1.06,490.09 1.08,489.90 1.10,489.50 C5.45,396.24 33.77,308.70 84.70,231.08 C122.41,173.60 173.60,122.41 231.08,84.70 C308.76,33.73 396.50,5.36 489.55,1.12 C490.06,1.10 490.31,1.07 490.31,1.05 C490.31,0.60 394.45,0.23 253.75,0.15 L 0.00 0.00 Z" fill="rgb(8,100,253)"/>
<path d="M 469.61 2.40 C474.27,1.96 479.06,1.53 484.00,1.13 C484.18,1.12 484.27,1.10 484.27,1.09 C484.27,0.69 418.18,0.36 315.84,0.21 C421.90,0.35 490.31,0.67 490.31,1.05 C490.31,1.07 490.06,1.10 489.55,1.12 C482.87,1.42 476.22,1.85 469.61,2.40 ZM 196.88 109.29 C230.16,83.11 266.24,61.43 304.97,44.35 C279.49,55.66 254.81,69.12 231.08,84.70 C219.40,92.36 207.98,100.58 196.88,109.29 ZM 44.52 304.58 C61.58,265.99 83.19,230.05 109.29,196.88 C100.58,207.98 92.36,219.40 84.70,231.08 C69.20,254.70 55.80,279.24 44.52,304.58 ZM 197.42 915.42 C221.87,934.43 247.00,950.79 273.22,964.73 C246.38,950.56 221.24,934.20 197.42,915.42 ZM 0.28 355.32 C0.45,434.85 0.75,484.27 1.09,484.27 C1.10,484.27 1.12,484.18 1.13,484.00 C1.51,479.34 1.91,474.81 2.33,470.39 C1.81,476.73 1.39,483.10 1.10,489.50 C1.08,489.90 1.06,490.09 1.04,490.09 C0.73,490.09 0.45,436.44 0.28,355.32 ZM 0.29 665.34 C0.45,586.09 0.74,533.91 1.04,533.91 C1.06,533.91 1.08,534.10 1.10,534.50 C1.41,541.18 1.84,547.83 2.39,554.44 C1.96,549.86 1.55,545.06 1.14,540.00 C1.12,539.82 1.11,539.72 1.09,539.72 C0.75,539.72 0.46,587.65 0.29,665.34 ZM 656.47 0.31 C584.61,0.48 540.21,0.76 540.21,1.08 C540.21,1.10 540.30,1.11 540.50,1.13 C546.25,1.57 551.79,2.04 557.15,2.55 C549.81,1.92 542.42,1.43 535.00,1.09 C534.58,1.08 534.38,1.06 534.38,1.04 C534.38,0.75 582.57,0.48 656.47,0.31 ZM 593.31 6.94 C613.90,10.07 632.55,14.14 651.84,19.58 C658.54,21.46 665.27,23.52 672.00,25.74 C646.45,17.43 620.18,11.15 593.31,6.94 ZM 64.58 760.01 C78.64,785.26 94.97,809.57 113.55,832.84 C109.40,827.68 105.26,822.31 100.95,816.52 C87.66,798.68 75.49,779.73 64.58,760.01 ZM 6.81 591.60 C10.26,613.84 15.12,635.63 21.36,656.93 C18.23,646.32 15.46,635.65 13.07,624.96 C10.57,613.71 8.54,603.03 6.81,591.60 ZM 135.27 857.84 C143.39,866.45 152.87,876.00 161.76,884.55 C157.97,880.95 154.21,877.29 150.48,873.55 C144.98,868.04 139.97,862.87 135.27,857.84 ZM 10.05 414.17 C12.52,401.18 15.44,388.74 18.93,376.17 C15.50,388.69 12.54,401.36 10.05,414.17 ZM 378.07 18.41 C389.26,15.34 400.38,12.74 411.89,10.49 C400.51,12.75 389.23,15.39 378.07,18.41 ZM 374.47 1005.21 C381.97,1007.31 387.69,1008.69 388.09,1008.44 C387.58,1008.76 382.03,1007.38 374.47,1005.21 ZM 330.35 990.63 C336.32,992.90 342.36,995.07 348.46,997.14 C344.02,995.66 339.89,994.23 336.49,992.96 C334.44,992.20 332.39,991.42 330.35,990.63 Z" fill="rgb(103,153,232)"/>
<path d="M 1022.99 475.25 C1022.98,470.66 1022.07,461.46 1020.68,450.79 C1021.98,460.71 1022.94,469.68 1023.24,475.50 C1023.24,475.54 1023.24,475.55 1023.24,475.55 C1023.39,475.55 1023.61,370.86 1023.75,240.59 C1023.89,108.63 1023.85,0.52 1023.67,0.33 C1023.48,0.15 914.24,0.11 780.91,0.25 C649.10,0.39 542.96,0.79 542.96,1.15 C542.96,1.16 542.97,1.16 543.00,1.17 C543.74,1.28 545.16,1.44 547.04,1.65 C544.89,1.47 542.71,1.30 540.50,1.13 C540.30,1.11 540.21,1.10 540.21,1.08 C540.21,0.76 584.61,0.48 656.47,0.31 C689.98,0.23 728.77,0.18 770.75,0.15 L 1024.00 0.00 L 1024.00 240.00 C1024.00,372.00 1023.78,480.00 1023.50,480.00 C1023.22,480.00 1023.00,477.86 1022.99,475.25 ZM 99.53 209.70 C122.73,178.04 149.51,149.27 179.12,123.89 C153.58,145.87 130.03,170.47 109.29,196.88 C105.97,201.11 102.71,205.38 99.53,209.70 ZM 441.57 5.51 C454.64,3.57 466.52,2.24 474.49,1.95 C472.85,2.10 471.22,2.25 469.61,2.40 C460.20,3.19 450.85,4.22 441.57,5.51 ZM 2.01 473.79 C2.26,469.80 2.87,462.95 3.56,456.71 C5.40,439.98 8.03,423.43 11.45,407.11 C10.97,409.45 10.50,411.80 10.05,414.17 C6.48,432.63 3.90,451.38 2.33,470.39 C2.22,471.52 2.12,472.65 2.01,473.79 ZM 6.81 591.60 C7.11,593.60 7.43,595.57 7.75,597.54 C7.69,597.19 7.63,596.85 7.57,596.50 C5.07,581.44 2.55,560.32 2.03,550.43 C2.15,551.79 2.27,553.12 2.39,554.44 C3.44,566.96 4.91,579.35 6.81,591.60 ZM 583.03 5.43 C591.00,6.48 598.98,7.74 606.96,9.20 C602.49,8.40 597.95,7.64 593.31,6.94 C589.90,6.40 586.47,5.90 583.03,5.43 ZM 341.87 29.68 C355.60,24.82 369.56,20.55 383.71,16.90 C381.84,17.39 379.96,17.89 378.07,18.41 C365.86,21.71 353.79,25.47 341.87,29.68 ZM 1.02 540.54 C1.04,540.00 1.07,539.72 1.09,539.72 C1.11,539.72 1.12,539.82 1.14,540.00 C1.17,540.42 1.20,540.84 1.24,541.25 C1.17,540.96 1.09,540.72 1.02,540.54 ZM 1.04 483.88 C1.09,483.70 1.14,483.48 1.20,483.24 C1.18,483.49 1.15,483.75 1.13,484.00 C1.12,484.18 1.10,484.27 1.09,484.27 C1.07,484.27 1.05,484.14 1.04,483.88 ZM 483.24 1.20 C483.48,1.14 483.70,1.09 483.88,1.04 C484.14,1.05 484.27,1.07 484.27,1.09 C484.27,1.10 484.18,1.12 484.00,1.13 C483.75,1.15 483.49,1.18 483.24,1.20 Z" fill="rgb(180,210,244)"/>
<path d="M 0.07 781.25 C0.11,644.93 0.52,539.38 1.00,540.50 C1.47,541.60 1.89,544.88 1.93,547.79 C2.04,555.98 4.81,579.91 7.57,596.50 C22.71,687.37 60.79,769.76 121.05,842.02 C134.72,858.42 166.18,889.84 182.50,903.41 C239.48,950.79 299.83,983.23 368.83,1003.58 C378.93,1006.56 387.60,1008.75 388.09,1008.44 C388.63,1008.11 389.00,938.48 389.00,838.45 L 389.00 669.02 L 336.25 668.76 L 283.50 668.50 L 283.24 590.25 L 282.99 512.00 L 335.99 512.00 L 389.00 512.00 L 389.00 466.75 C389.01,419.13 389.79,402.45 393.09,379.50 C403.77,305.30 434.42,254.09 486.46,223.51 C537.91,193.26 615.19,183.28 707.00,195.03 C715.53,196.13 728.69,198.19 736.26,199.62 L 750.01 202.23 L 749.76 273.27 L 749.50 344.31 L 741.00 343.90 C720.78,342.94 665.26,343.54 657.00,344.80 C643.00,346.95 630.06,350.77 620.00,355.73 C612.04,359.65 609.03,361.88 601.43,369.46 C588.71,382.14 582.58,394.45 577.78,417.00 C575.97,425.45 575.70,431.24 575.28,469.25 L 574.82 512.00 L 658.48 512.00 C737.68,512.00 742.11,512.09 741.62,513.75 C740.92,516.15 737.82,532.87 725.52,600.50 C719.72,632.40 714.50,660.86 713.92,663.75 L 712.86 669.00 L 643.93 669.00 L 575.00 669.00 L 575.00 844.50 L 575.00 1020.00 L 577.75 1020.00 C579.26,1020.00 586.12,1019.08 593.00,1017.96 C685.95,1002.81 768.74,964.91 842.05,903.96 C858.06,890.65 890.65,858.06 904.00,842.00 C974.77,756.93 1014.07,659.93 1023.33,547.50 C1023.52,545.30 1023.74,651.61 1023.83,783.75 L 1024.00 1024.00 L 512.00 1024.00 L 0.00 1024.00 L 0.07 781.25 ZM 0.10 243.25 L 0.00 0.00 L 243.25 0.10 C377.04,0.15 485.38,0.56 484.00,1.00 C482.62,1.44 479.12,1.85 476.21,1.90 C458.36,2.24 416.41,8.81 389.00,15.57 C264.83,46.17 154.96,123.99 84.70,231.08 C39.96,299.26 12.45,375.78 3.56,456.71 C2.70,464.52 1.96,473.30 1.90,476.21 C1.85,479.12 1.44,482.62 1.00,484.00 C0.56,485.38 0.15,377.04 0.10,243.25 ZM 1023.24 475.50 C1022.52,461.39 1017.92,428.77 1013.87,409.00 C984.53,265.65 894.24,140.94 766.91,67.88 C705.00,32.36 634.11,9.72 565.03,3.43 C555.39,2.55 545.47,1.53 543.00,1.17 C540.53,0.80 647.59,0.39 780.91,0.25 C914.24,0.11 1023.48,0.15 1023.67,0.33 C1023.85,0.52 1023.89,108.63 1023.75,240.59 C1023.61,372.54 1023.38,478.25 1023.24,475.50 Z" fill="rgb(254,254,254)"/>
</g>
</svg>